HIERARCHY
ROOT Pelvis
{
	OFFSET 0.000000 0.000000 0.000000
	CHANNELS 6 Xposition Yposition Zposition Xrotation Yrotation Zrotation
	JOINT LeftUpLeg_virtual
	{
		OFFSET 0.000000 0.000000 0.000000
		CHANNELS 3 Xrotation Yrotation Zrotation
		JOINT LeftUpLeg
		{
			OFFSET 18.735201 -5.666702 -4.541200
			CHANNELS 3 Xrotation Yrotation Zrotation
			JOINT LeftLeg
			{
				OFFSET -0.021200 -31.938179 0.493100
				CHANNELS 3 Xrotation Yrotation Zrotation
				JOINT LeftFoot
				{
					OFFSET 0.021200 -31.938179 -4.336299
					CHANNELS 3 Xrotation Yrotation Zrotation
					JOINT LeftToeBase
					{
						OFFSET 0.943001 -26.722000 15.023500
						CHANNELS 3 Xrotation Yrotation Zrotation
						End Site
						{
							OFFSET 0 0 0
						}
					}
				}
			}
		}
	}
	JOINT RightUpLeg_virtual
	{
		OFFSET 0.000000 0.000000 0.000000
		CHANNELS 3 Xrotation Yrotation Zrotation
		JOINT RightUpLeg
		{
			OFFSET -18.735201 -5.666702 -4.541200
			CHANNELS 3 Xrotation Yrotation Zrotation
			JOINT RightLeg
			{
				OFFSET 0.018946 -31.938133 0.493100
				CHANNELS 3 Xrotation Yrotation Zrotation
				JOINT RightFoot
				{
					OFFSET -0.018946 -31.938126 -4.336299
					CHANNELS 3 Xrotation Yrotation Zrotation
					JOINT RightToeBase
					{
						OFFSET -0.943001 -26.722004 15.023500
						CHANNELS 3 Xrotation Yrotation Zrotation
						End Site
						{
							OFFSET 0 0 0
						}
					}
				}
			}
		}
	}
	JOINT Hips_virtual
	{
		OFFSET 0.000000 0.000000 0.000000
		CHANNELS 3 Xrotation Yrotation Zrotation
		JOINT Hips
		{
			OFFSET -0.000000 -0.000000 -0.000000
			CHANNELS 3 Xrotation Yrotation Zrotation
			JOINT Spine
			{
				OFFSET 0.000000 10.199997 -0.299500
				CHANNELS 3 Xrotation Yrotation Zrotation
				JOINT Spine1
				{
					OFFSET 0.000000 11.900002 -1.516600
					CHANNELS 3 Xrotation Yrotation Zrotation
					JOINT Spine2
					{
						OFFSET 0.000000 13.600006 -2.842500
						CHANNELS 3 Xrotation Yrotation Zrotation
						JOINT Neck_virtual
						{
							OFFSET 0.000000 0.000000 0.000000
							CHANNELS 3 Xrotation Yrotation Zrotation
							JOINT Neck
							{
								OFFSET 0.000000 9.624100 -2.890100
								CHANNELS 3 Xrotation Yrotation Zrotation
								JOINT Head
								{
									OFFSET 0.000000 14.068802 -1.351900
									CHANNELS 3 Xrotation Yrotation Zrotation
									End Site
									{
										OFFSET 0 0 0
									}
								}
							}
						}
						JOINT LeftShoulder_virtual
						{
							OFFSET 0.000000 0.000000 0.000000
							CHANNELS 3 Xrotation Yrotation Zrotation
							JOINT LeftShoulder
							{
								OFFSET 15.263000 10.923401 -0.547700
								CHANNELS 3 Xrotation Yrotation Zrotation
								JOINT LeftArm
								{
									OFFSET 25.438599 -2.830597 -13.032500
									CHANNELS 3 Xrotation Yrotation Zrotation
									JOINT LeftForeArm
									{
										OFFSET 29.960503 0.000000 0.000000
										CHANNELS 3 Xrotation Yrotation Zrotation
										JOINT LeftHand
										{
											OFFSET 27.849251 0.000000 0.000000
											CHANNELS 3 Xrotation Yrotation Zrotation
											End Site
											{
												OFFSET 0 0 0
											}
										}
									}
								}
							}
						}
						JOINT RightShoulder_virtual
						{
							OFFSET 0.000000 0.000000 0.000000
							CHANNELS 3 Xrotation Yrotation Zrotation
							JOINT RightShoulder
							{
								OFFSET -15.263000 10.923401 -0.547700
								CHANNELS 3 Xrotation Yrotation Zrotation
								JOINT RightArm
								{
									OFFSET -25.438599 -2.830597 -13.032500
									CHANNELS 3 Xrotation Yrotation Zrotation
									JOINT RightForeArm
									{
										OFFSET -29.960503 0.000000 0.000000
										CHANNELS 3 Xrotation Yrotation Zrotation
										JOINT RightHand
										{
											OFFSET -27.849251 0.000000 0.000000
											CHANNELS 3 Xrotation Yrotation Zrotation
											End Site
											{
												OFFSET 0 0 0
											}
										}
									}
								}
							}
						}
					}
				}
			}
		}
	}
}
MOTION
Frames: 5
Frame Time: 0.03333333
-3.336184 71.893303 17.853981 0.000000 0.000000 0.000000 8.599078 50.362601 -4.293198 -84.811483 -4.891825 -32.768034 62.759535 -37.009271 3.303249 8.733957 -4.773368 -8.221062 0.000000 0.000000 0.000000 8.127561 50.823103 -4.747422 23.019986 -39.303231 9.227481 34.610262 14.084971 -7.902038 -17.134397 2.552593 0.374808 0.000000 0.000000 0.000000 8.507726 48.316441 -4.809440 0.043626 -0.035895 0.962581 9.980424 9.636093 -1.066378 3.375933 16.995809 -1.191773 0.000000 0.000000 0.000000 2.087438 16.496196 -0.744149 3.481756 -8.090793 1.084798 0.000000 0.000000 0.000000 2.929716 16.480541 -0.685486 2.124102 -5.614742 -4.835225 -45.452843 7.922009 -26.632279 48.163909 -22.260925 22.666980 0.000000 0.000000 0.000000 2.707542 16.596796 -0.976695 -2.377038 8.343489 -18.014962 -21.702443 -9.682712 3.100521 -36.682364 19.169927 10.695369 0.000000 0.000000 0.000000 
-2.858104 72.232231 17.971064 0.000000 0.000000 0.000000 8.768208 47.636615 -3.969094 -83.911736 -4.704864 -31.850460 61.554710 -35.992672 2.480393 9.444055 -4.964191 -7.295348 0.000000 0.000000 0.000000 8.672272 47.824513 -4.707745 20.850872 -39.036334 7.097375 35.660623 13.861399 -7.488360 -17.033720 2.611580 -0.232258 0.000000 0.000000 0.000000 8.953343 45.785610 -4.617815 0.083384 -0.404875 0.990039 10.191478 9.201757 -1.664798 3.161306 16.781370 -1.323909 0.000000 0.000000 0.000000 2.051899 16.282616 -0.800634 3.514417 -7.835441 0.862860 0.000000 0.000000 0.000000 2.660649 16.303358 -0.860073 2.234371 -4.003500 -5.390053 -40.321359 12.364691 -25.904155 48.326324 -23.769738 24.611123 0.000000 0.000000 0.000000 2.673229 16.323233 -1.225362 -2.311186 8.876973 -17.927104 -25.718432 -8.140046 2.286143 -34.567567 20.980721 12.546212 0.000000 0.000000 0.000000 
-2.406274 72.563545 18.058258 0.000000 0.000000 0.000000 8.384217 44.108269 -3.396619 -83.251509 -3.830871 -29.870446 61.467154 -34.614470 1.690765 10.812364 -5.026937 -5.916309 0.000000 0.000000 0.000000 8.889927 44.168979 -4.488872 18.076912 -38.276377 4.224871 36.946071 13.853405 -7.129147 -16.667144 2.677831 -0.994890 0.000000 0.000000 0.000000 8.803586 42.488162 -4.018830 0.037521 -0.657057 1.082018 10.044197 8.832731 -1.999924 3.129335 16.535248 -1.378636 0.000000 0.000000 0.000000 2.286238 16.004738 -0.824315 3.485946 -7.517387 0.666468 0.000000 0.000000 0.000000 2.500939 16.046397 -0.960921 2.060993 -2.575952 -5.925488 -35.418977 17.651941 -24.852287 48.562857 -25.277171 26.968819 0.000000 0.000000 0.000000 2.804716 16.045796 -1.366871 -2.315699 8.836393 -18.122375 -32.040421 -4.502640 3.310100 -31.054896 20.991861 12.794114 0.000000 0.000000 0.000000 
-1.966913 72.905525 18.161346 0.000000 0.000000 0.000000 7.698798 39.751008 -2.673644 -82.447555 -2.974848 -27.380815 62.085115 -33.244201 1.206652 11.258063 -5.178181 -4.648414 0.000000 0.000000 0.000000 8.742046 39.904257 -4.046098 14.895487 -36.545928 0.862896 38.681526 14.131667 -7.022972 -16.008389 2.862348 -1.726665 0.000000 0.000000 0.000000 8.186222 38.516263 -3.160596 -0.022801 -0.829767 1.145759 9.704178 8.496554 -2.002883 3.332918 16.167695 -1.383110 0.000000 0.000000 0.000000 2.712044 15.606398 -0.842473 3.422306 -7.143801 0.520797 0.000000 0.000000 0.000000 2.528112 15.638850 -0.992298 1.695350 -1.240541 -6.076300 -30.508331 23.744140 -23.710928 48.876175 -26.501870 29.425968 0.000000 0.000000 0.000000 3.054597 15.697440 -1.407101 -2.313562 8.314823 -18.266754 -39.378800 0.739355 7.009020 -26.496290 19.334944 11.556143 0.000000 0.000000 0.000000 
-1.497004 73.372169 18.153536 0.000000 0.000000 0.000000 6.921607 34.769805 -1.824178 -80.909724 -2.624366 -24.804139 61.766582 -32.170676 0.714313 9.830877 -5.971695 -4.321865 0.000000 0.000000 0.000000 8.319818 35.104874 -3.380640 11.405525 -33.889507 -2.869068 40.847540 14.704743 -7.215294 -14.894580 3.217336 -2.034043 0.000000 0.000000 0.000000 7.363238 33.918665 -2.220809 -0.177767 -0.777214 1.049667 9.364216 8.166261 -1.711909 3.701894 15.618066 -1.357635 0.000000 0.000000 0.000000 3.216274 15.003484 -0.862437 3.313388 -6.720450 0.439504 0.000000 0.000000 0.000000 2.711841 15.044175 -0.963554 1.219314 0.136982 -5.760944 -25.228982 30.756437 -23.179721 49.337144 -27.532175 31.863656 0.000000 0.000000 0.000000 3.299416 15.166235 -1.348507 -2.241365 7.459833 -17.747835 -46.271366 6.407812 12.856991 -21.704181 17.540831 9.635972 0.000000 0.000000 0.000000 
